<svg xmlns="http://www.w3.org/2000/svg" aria-hidden="true" style="position:absolute;width:0;height:0;overflow:hidden"><defs><symbol id="icon-close" viewBox="0 0 32 32"><path fill="none" stroke="#f0f8ff" stroke-linecap="round" stroke-linejoin="round" stroke-width="2.667" d="M24 8 8 24M8 8l16 16" style="stroke:var(--color1, #f0f8ff)"/></symbol><symbol id="icon-gameplay1" viewBox="0 0 32 32"><path fill="#e8734a" d="M14.759 0h2.455l.031.009c.312.093.871.112 1.206.171.646.113 1.28.246 1.911.427a16.07 16.07 0 0 1 9.644 7.666 15.8 15.8 0 0 1 1.713 4.751c.073.395.175 1.548.282 1.839v2.309l-.009.03a2 2 0 0 0-.07.379 16.4 16.4 0 0 1-.528 2.777 16.1 16.1 0 0 1-7.584 9.599 16.3 16.3 0 0 1-4.649 1.745c-.354.075-1.667.211-1.867.298h-2.532c-.207-.078-1.492-.228-1.822-.292a15.5 15.5 0 0 1-3.797-1.252 16.07 16.07 0 0 1-8.451-9.793 18 18 0 0 1-.46-1.937c-.071-.381-.1-1.123-.231-1.459v-2.543c.031-.071.062-.199.07-.277.218-2.076.788-4.031 1.767-5.883A15.96 15.96 0 0 1 11.549.63a17 17 0 0 1 1.988-.445c.337-.052.922-.083 1.223-.185zm1.663 28.781c7.062-.235 12.595-6.153 12.355-13.215S22.615 2.976 15.553 3.221c-7.054.245-12.575 6.16-12.336 13.214s6.15 12.58 13.205 12.345z" style="fill:var(--color2, #e8734a)"/><path fill="#e8734a" d="M15.774 11.208a4.799 4.799 0 1 1 .445 9.587 4.799 4.799 0 0 1-.445-9.587" style="fill:var(--color2, #e8734a)"/></symbol><symbol id="icon-gameplay2" viewBox="0 0 32 32"><path fill="#e8734a" d="M30.003 6.543c.771-.085 1.468.375 1.594 1.159q.031.182.011.365c-.061.564-.183 1.228-.274 1.792l-.488 3.04-.515 3.206c-.096.597-.221 1.83-.496 2.339-.313.579-1.286.864-1.863.472-.355-.241-.584-.483-.902-.803l-1.335-1.344c-.241-.242-.629-.651-.891-.847l-5.521 5.51-1.532 1.537c-.304.305-.599.618-.931.892-.405.349-1.15.428-1.59.091-.545-.418-1.077-1.003-1.569-1.495l-2.347-2.35c-.482-.482-1.004-1.026-1.506-1.477l-4.49 4.481-1.251 1.255c-.604.608-1.01 1.206-1.954 1.096a1.5 1.5 0 0 1-.485-.203c-1.05-.76-1.921-1.859-.709-2.995.214-.201.508-.51.728-.73l5.516-5.514c.575-.576 1.143-1.161 1.737-1.716.387-.362 1.106-.458 1.558-.182.467.286.891.775 1.281 1.165l2.86 2.863c.253.253 1.133 1.162 1.367 1.321l.024.016c1.395-1.487 2.922-2.9 4.347-4.365a52 52 0 0 1 1.853-1.834c-.639-.73-1.432-1.396-2.095-2.109-.407-.437-.972-.821-1.067-1.446a1.48 1.48 0 0 1 .286-1.109c.442-.582 1.342-.596 2.025-.705l6.324-1.016c.746-.12 1.558-.266 2.3-.362z" style="fill:var(--color2, #e8734a)"/></symbol><symbol id="icon-gameplay3" viewBox="0 0 32 32"><path fill="#e8734a" d="M22.297 0h1.873a1 1 0 0 0 .195.059c.598.1 1.152.215 1.729.408a8.8 8.8 0 0 1 5.098 4.602c.263.559.459 1.147.584 1.752.04.194.173.969.224 1.096v1.698c-.069.168-.182.89-.232 1.113a8 8 0 0 1-.519 1.58 8.8 8.8 0 0 1-1.101 1.828q-.4.509-.866.968c-1.008.994-1.995 2.021-3.017 2.999-.168.161-.502.348-.719.43a2.13 2.13 0 0 1-1.633-.036c-.91-.409-1.413-1.13-1.419-2.129-.007-1.142.804-1.777 1.544-2.513l1.324-1.319c.663-.66 1.329-1.21 1.7-2.079 1.494-3.498-1.854-6.92-5.397-5.576-.907.344-1.439.972-2.098 1.629l-3.17 3.17c-.578.579-1.117 1.046-1.482 1.798-.739 1.526-.505 3.417.665 4.663.24.256.507.573.634.902.224.582.209 1.23-.042 1.801-.256.56-.722.997-1.297 1.216a2.25 2.25 0 0 1-2.271-.425c-.945-.857-1.711-2.077-2.146-3.258a8.86 8.86 0 0 1 .3-6.811c.59-1.27 1.349-2.072 2.316-3.039l3.333-3.332c.83-.829 1.426-1.449 2.468-2.045a9 9 0 0 1 2.407-.939c.294-.067.753-.109 1.016-.214z" style="fill:var(--color2, #e8734a)"/><path fill="#e8734a" d="M0 22.289c.113-.237.186-.856.252-1.132.122-.507.265-.938.474-1.416a8.8 8.8 0 0 1 1.046-1.789c.874-1.159 2.221-2.279 3.237-3.338.121-.126.452-.3.618-.364a2.32 2.32 0 0 1 1.759.043c.556.244.992.699 1.212 1.265a2.3 2.3 0 0 1-.049 1.754c-.232.508-.682.908-1.075 1.298l-1.163 1.154c-.975.968-1.599 1.675-1.722 3.137a4.2 4.2 0 0 0 .236 1.79 4.24 4.24 0 0 0 2.179 2.358 4.25 4.25 0 0 0 3.233.104 4.1 4.1 0 0 0 1.083-.619c.317-.255.737-.695 1.03-.989l1.57-1.573 1.615-1.613c.343-.342.76-.736 1.065-1.101.221-.263.402-.556.539-.87a4.23 4.23 0 0 0 .086-3.237 4.2 4.2 0 0 0-.611-1.071c-.541-.679-.987-.954-.989-1.956a2.4 2.4 0 0 1 .193-.963c.24-.553.692-.987 1.254-1.204a2.3 2.3 0 0 1 1.756.048c1.141.514 2.277 2.458 2.697 3.583a8.82 8.82 0 0 1-.233 6.715 8.6 8.6 0 0 1-1.186 1.902c-.382.47-.825.897-1.253 1.325l-3.195 3.195c-.574.573-1.033 1.055-1.688 1.549a8.7 8.7 0 0 1-2.245 1.217 7 7 0 0 1-.817.252c-.248.061-1.011.168-1.199.256H7.827c-.144-.068-.973-.208-1.187-.257a7 7 0 0 1-1.103-.344c-2.271-.871-4.25-2.892-5.037-5.205a9 9 0 0 1-.269-.953c-.052-.245-.136-.86-.232-1.058v-1.894z" style="fill:var(--color2, #e8734a)"/></symbol><symbol id="icon-gameplay4" viewBox="0 0 32 32"><path fill="#e8734a" d="m15.294.828 3.725-.022c.59-.002 1.225.013 1.81-.008-.292.532-.662 1.11-.983 1.632l-1.597 2.595-4.622 7.517 11.354-.645c-.161.255-.481.93-.632 1.221l-1.288 2.49-4.115 7.969c.503-.03 1.129-.015 1.639-.015l2.959.012c-.617.546-1.428 1.168-2.081 1.692l-3.897 3.131c-1.162.904-2.336 1.924-3.509 2.798-.328-.723-.785-1.541-1.145-2.258-.898-1.789-1.864-3.569-2.735-5.369 1.462-.019 2.944-.003 4.409-.009 1.219-2.329 2.383-4.706 3.593-7.043-.407.067-1.035.068-1.466.099q-1.056.074-2.114.125a159 159 0 0 0-5.524.327c-.469.032-1.711.039-2.071.11.162-.481.327-1.141.468-1.645l.882-3.14c1.07-3.812 2.12-7.73 3.239-11.514.418-.044 1.026-.032 1.458-.034l2.242-.017z" style="fill:var(--color2, #e8734a)"/></symbol><symbol id="icon-gameplay5" viewBox="0 0 32 32"><path fill="#e8734a" d="M15.99 1.326c.52.008 1.034.106 1.521.291.553.216 1.423.677 1.982.953l7.74 3.81c.569.279 2.415 1.131 2.8 1.483.381.355.605.848.621 1.369.034.844-.381 1.539-1.132 1.924-.758.388-1.524.759-2.289 1.135l-7.844 3.861c-1.169.576-2.041 1.154-3.382 1.2-1.27-.011-2.295-.652-3.401-1.198l-3.358-1.657-4.686-2.304c-.319-.157-.65-.313-.962-.474-.513-.286-1.213-.516-1.647-.914-.993-.911-.744-2.672.469-3.273.768-.381 1.511-.746 2.266-1.118l7.867-3.872c1.255-.621 1.99-1.131 3.433-1.212z" style="fill:var(--color2, #e8734a)"/><path fill="#e8734a" d="M2.654 14.102c.452-.045 1.088.344 1.507.55l7.954 3.919c.596.294 1.204.589 1.797.884.801.399 1.41.561 2.306.529.94-.033 1.611-.407 2.432-.811l7.904-3.893a93 93 0 0 0 1.415-.699c.373-.187 1.046-.605 1.452-.444.999.396 1.487 1.536 1.125 2.543-.252.702-.71.999-1.35 1.307-.831.432-1.75.864-2.596 1.28l-7.527 3.708c-.516.254-1.199.615-1.72.805-1.055.383-2.24.267-3.243-.224-2.64-1.292-5.278-2.6-7.915-3.897l-2.529-1.241c-.469-.23-1.113-.502-1.523-.798-1.289-.934-.971-2.987.512-3.516z" style="fill:var(--color2, #e8734a)"/><path fill="#e8734a" d="M2.737 20.756c.44-.005 1.666.685 2.137.917l8.37 4.123c.499.247 1.053.544 1.58.698.657.191 1.352.22 2.022.082.773-.152 2.696-1.177 3.512-1.579l5.052-2.488c1.085-.534 2.22-1.1 3.268-1.613 1.271-.622 2.363 1.35 1.875 2.439-.345.769-.631.962-1.346 1.316l-10.376 5.111c-.511.252-1.241.64-1.769.777-.74.19-1.518.177-2.251-.04-.54-.16-1.43-.634-1.974-.904l-7.805-3.843c-.887-.436-1.771-.868-2.652-1.316-1.538-.782-1.311-3.257.359-3.68z" style="fill:var(--color2, #e8734a)"/></symbol><symbol id="icon-gameplay6" viewBox="0 0 32 32"><path fill="#e8734a" d="M26 32a1.33 1.33 0 0 1-1.239-.838l-1.125-2.817-2.821-1.188a1.34 1.34 0 0 1-.561-1.993c.151-.217.362-.386.608-.483l2.784-1.055 1.116-2.789a1.345 1.345 0 0 1 1.981-.598c.22.146.393.354.495.598l1.121 2.8 2.8 1.121a1.342 1.342 0 0 1 0 2.478l-2.8 1.121-1.121 2.8a1.34 1.34 0 0 1-1.239.843zm-12.667-4a2.66 2.66 0 0 1-2.581-1.884L8.6 19.387l-6.751-2.259a2.707 2.707 0 0 1-1.307-4.197 2.7 2.7 0 0 1 1.377-.964l6.697-2.045 2.256-6.739a2.61 2.61 0 0 1 2.605-1.849 2.665 2.665 0 0 1 2.556 1.919l2.043 6.687 6.707 2.147a2.72 2.72 0 0 1 1.857 2.581 2.72 2.72 0 0 1-1.857 2.581l-6.719 2.149-2.149 6.719a2.66 2.66 0 0 1-2.581 1.884zm.15-23.969-2.549 7.388a1.34 1.34 0 0 1-.875.854l-7.361 2.245 7.388 2.556a1.32 1.32 0 0 1 .848.857l2.36 7.373 2.44-7.373a1.34 1.34 0 0 1 .864-.864l7.373-2.359.027-.012-7.4-2.429a1.33 1.33 0 0 1-.869-.882zm13.85 5.302a1.33 1.33 0 0 1-1.293-1.009l-.476-1.907-1.911-.513a1.33 1.33 0 0 1-.987-1.311 1.34 1.34 0 0 1 1.033-1.276l1.867-.433.475-1.875a1.335 1.335 0 0 1 2.113-.727c.234.183.401.439.473.727l.472 1.891 1.891.473a1.335 1.335 0 0 1 .727 2.113 1.34 1.34 0 0 1-.727.473l-1.891.473-.472 1.891a1.335 1.335 0 0 1-1.293 1.009z" style="fill:var(--color2, #e8734a)"/></symbol><symbol id="icon-menu" viewBox="0 0 32 32"><path fill="none" stroke="#f0f8ff" stroke-linecap="round" stroke-linejoin="round" stroke-width="2.667" d="M5.333 8h21.333M5.333 16h21.333M5.333 24h21.333" style="stroke:var(--color1, #f0f8ff)"/></symbol><symbol id="icon-square" viewBox="0 0 32 32"><path fill="none" stroke="#3d8b2f" stroke-linecap="round" stroke-linejoin="round" stroke-width="3.556" d="M28.535 14.072 17.928 3.467a2.724 2.724 0 0 0-3.856-.001L3.465 14.073a2.73 2.73 0 0 0 0 3.856l10.607 10.607a2.73 2.73 0 0 0 3.856 0l10.607-10.607a2.73 2.73 0 0 0 0-3.856z" style="stroke:var(--color3, #3d8b2f)"/></symbol></defs></svg>